<mxfile host="Electron" modified="2023-04-21T23:26:25.472Z" agent="Mozilla/5.0 (Windows NT 10.0; Win64; x64) AppleWebKit/537.36 (KHTML, like Gecko) draw.io/21.2.1 Chrome/112.0.5615.87 Electron/24.1.2 Safari/537.36" etag="WU2DaAhASuyfPDfcjxqG" version="21.2.1" type="device">
  <diagram id="A49Jl6rzvlZxV9XjYyQ4" name="1 oldal">
    <mxGraphModel dx="863" dy="519" grid="1" gridSize="10" guides="1" tooltips="1" connect="1" arrows="1" fold="1" page="1" pageScale="1" pageWidth="827" pageHeight="1169" math="0" shadow="0">
      <root>
        <mxCell id="0" />
        <mxCell id="1" parent="0" />
        <mxCell id="uQDmBJz3zAGxu0lc11f--1" value="Felhasználó" style="shape=umlActor;verticalLabelPosition=bottom;verticalAlign=top;html=1;outlineConnect=0;strokeWidth=1;perimeterSpacing=0;shadow=0;sketch=0;fillColor=#FFFFFF;" parent="1" vertex="1">
          <mxGeometry x="384" y="40" width="30" height="60" as="geometry" />
        </mxCell>
        <mxCell id="uQDmBJz3zAGxu0lc11f--3" value="Bejelentkezés" style="rounded=0;whiteSpace=wrap;html=1;" parent="1" vertex="1">
          <mxGeometry x="140" y="210" width="120" height="30" as="geometry" />
        </mxCell>
        <mxCell id="uQDmBJz3zAGxu0lc11f--8" value="Angol szavak tanulása" style="rounded=0;whiteSpace=wrap;html=1;" parent="1" vertex="1">
          <mxGeometry x="270" y="210" width="120" height="30" as="geometry" />
        </mxCell>
        <mxCell id="uQDmBJz3zAGxu0lc11f--9" value="Teszt&lt;br&gt;&amp;nbsp;kitöltése" style="rounded=0;whiteSpace=wrap;html=1;" parent="1" vertex="1">
          <mxGeometry x="400" y="210" width="120" height="30" as="geometry" />
        </mxCell>
        <mxCell id="uQDmBJz3zAGxu0lc11f--10" value="Saját szószedetek létrehozása" style="rounded=0;whiteSpace=wrap;html=1;" parent="1" vertex="1">
          <mxGeometry x="530" y="210" width="120" height="30" as="geometry" />
        </mxCell>
        <mxCell id="uQDmBJz3zAGxu0lc11f--16" value="" style="endArrow=classic;html=1;rounded=0;entryX=0.5;entryY=0;entryDx=0;entryDy=0;" parent="1" target="uQDmBJz3zAGxu0lc11f--10" edge="1">
          <mxGeometry width="50" height="50" relative="1" as="geometry">
            <mxPoint x="400" y="130" as="sourcePoint" />
            <mxPoint x="470" y="170" as="targetPoint" />
            <Array as="points" />
          </mxGeometry>
        </mxCell>
        <mxCell id="uQDmBJz3zAGxu0lc11f--17" value="" style="endArrow=classic;html=1;rounded=0;entryX=0.5;entryY=0;entryDx=0;entryDy=0;" parent="1" target="uQDmBJz3zAGxu0lc11f--3" edge="1">
          <mxGeometry width="50" height="50" relative="1" as="geometry">
            <mxPoint x="400" y="130" as="sourcePoint" />
            <mxPoint x="456" y="280.5" as="targetPoint" />
            <Array as="points" />
          </mxGeometry>
        </mxCell>
        <mxCell id="uQDmBJz3zAGxu0lc11f--18" value="" style="endArrow=classic;html=1;rounded=0;entryX=0.5;entryY=0;entryDx=0;entryDy=0;" parent="1" target="uQDmBJz3zAGxu0lc11f--8" edge="1">
          <mxGeometry width="50" height="50" relative="1" as="geometry">
            <mxPoint x="400" y="130" as="sourcePoint" />
            <mxPoint x="150" y="220" as="targetPoint" />
            <Array as="points" />
          </mxGeometry>
        </mxCell>
        <mxCell id="uQDmBJz3zAGxu0lc11f--19" value="" style="endArrow=classic;html=1;rounded=0;entryX=0.5;entryY=0;entryDx=0;entryDy=0;" parent="1" target="uQDmBJz3zAGxu0lc11f--9" edge="1">
          <mxGeometry width="50" height="50" relative="1" as="geometry">
            <mxPoint x="400" y="130" as="sourcePoint" />
            <mxPoint x="310" y="220" as="targetPoint" />
            <Array as="points" />
          </mxGeometry>
        </mxCell>
        <mxCell id="SLHFfWRLNDNMzN5iIxAq-1" value="Regisztráció" style="rounded=0;whiteSpace=wrap;html=1;" vertex="1" parent="1">
          <mxGeometry x="10" y="210" width="120" height="30" as="geometry" />
        </mxCell>
        <mxCell id="SLHFfWRLNDNMzN5iIxAq-3" value="Saját szószedetek módosítása" style="rounded=0;whiteSpace=wrap;html=1;" vertex="1" parent="1">
          <mxGeometry x="660" y="210" width="120" height="30" as="geometry" />
        </mxCell>
        <mxCell id="SLHFfWRLNDNMzN5iIxAq-4" value="" style="endArrow=classic;html=1;rounded=0;entryX=0.5;entryY=0;entryDx=0;entryDy=0;" edge="1" parent="1" target="SLHFfWRLNDNMzN5iIxAq-1">
          <mxGeometry width="50" height="50" relative="1" as="geometry">
            <mxPoint x="400" y="130" as="sourcePoint" />
            <mxPoint x="210" y="220" as="targetPoint" />
            <Array as="points" />
          </mxGeometry>
        </mxCell>
        <mxCell id="SLHFfWRLNDNMzN5iIxAq-5" value="" style="endArrow=classic;html=1;rounded=0;entryX=0.5;entryY=0;entryDx=0;entryDy=0;" edge="1" parent="1" target="SLHFfWRLNDNMzN5iIxAq-3">
          <mxGeometry width="50" height="50" relative="1" as="geometry">
            <mxPoint x="400" y="130" as="sourcePoint" />
            <mxPoint x="600" y="220" as="targetPoint" />
            <Array as="points" />
          </mxGeometry>
        </mxCell>
      </root>
    </mxGraphModel>
  </diagram>
</mxfile>
